<?xml version="1.0" standalone="no"?><!DOCTYPE svg PUBLIC "-//W3C//DTD SVG 1.1//EN" "http://www.w3.org/Graphics/SVG/1.1/DTD/svg11.dtd"><svg t="1725592783193" class="icon" viewBox="0 0 1024 1024" version="1.1" xmlns="http://www.w3.org/2000/svg" p-id="61018" xmlns:xlink="http://www.w3.org/1999/xlink" width="200" height="200"><path d="M311.30645908 246.41748192c0-2.60042447-1.01755818-81.85685083 18.65522137-106.1651712 19.89890309-24.87362851 76.88212542-56.98322231 76.88212544-56.98322231s65.01062077-40.47617831 76.99518791-33.12715052c12.09762818 7.12290279 10.06251333 85.58789598 10.06251333 85.58789453s-0.5653096 77.44743503-13.11518637 99.83370155c-12.54987677 22.27320403-77.67355855 61.27957708-77.67355857 61.27957708s-56.98322231 37.19738174-76.54294082 36.51900961c-19.10746995-1.01755818-15.26336374-84.23115175-15.26336229-86.94463874z" fill="#0077ff" p-id="61019"></path><path d="M350.99120277 642.69961365c0.45224708 14.01968204 69.64616011 50.76481518 69.64616011 50.76481519s68.06329381 37.42350527 93.5022334 37.42350526c25.66506313 0 91.35405454-37.64962882 91.35405455-37.64962882s60.48814246-31.54428419 69.42003657-48.84276281c8.81883159-17.18541612-65.68899289-54.60892138-68.06329382-55.96566414-2.14817739-1.24368174-70.88984185-40.81536437-101.75575392-35.72757645-31.54428419 5.31391146-87.50994834 39.2324966-87.50994835 39.23249658s-67.04573565 36.74513316-66.59348854 50.76481519z" fill="#0077ff" p-id="61020"></path><path d="M322.61265412 583.56821396C342.17237116 584.3596471 399.04253098 547.04920434 399.04253098 547.04920434s65.01062077-39.00637306 77.67356003-61.27957708c12.54987677-22.27320403 13.2282474-99.72063905 13.2282474-99.72063906s1.92205382-78.35193069-10.06251331-85.58789599c-11.98456716-7.2359653-77.10824896 33.12715052-77.10824897 33.12715199s-56.87015981 32.33571737-76.88212542 56.98322233c-19.67277956 24.42138142-18.65522139 103.67780777-18.65522284 106.39129474-0.22612355 2.60042447-3.8441062 85.92708204 15.37642625 86.60545269z" fill="#0077ff" p-id="61021"></path><path d="M761.40607903 368.75050959c12.6629378 22.27320403 77.78662107 61.27957708 77.7866211 61.27957708s56.98322231 37.31044276 76.54293936 36.5190096c19.10746995-0.79143315 15.48948731-83.89196569 15.4894873-86.60545266 0-2.60042447 1.13061922-81.74378978-18.65522139-106.39129477-20.0119656-24.76056747-76.99518791-56.98322231-76.99518793-56.98322231s-65.12368329-40.47617831-76.99518792-33.12715051c-12.09762818 7.2359653-10.17557583 85.58789598-10.17557436 85.58789453s0.67837212 77.44743503 13.00212384 99.72063904z" fill="#0077ff" p-id="61022"></path><path d="M697.97832459 390.68452902c-20.12502665-24.76056747-76.99518791-57.09628483-76.99518646-57.09628482s-65.01062077-40.36311581-77.10825044-33.01408947c-11.98456716 7.34902633-10.17557583 85.58789598-10.17557437 85.58789599s0.79143315 77.44743503 13.22824741 99.72063905c12.54987677 22.27320403 77.56049753 61.27957708 77.56049753 61.27957708s57.09628483 37.19738174 76.54293937 36.51900962c19.22053099-0.79143315 15.48948731-84.0050282 15.37642479-86.60545418 0.22612355-2.71348699 1.24368174-81.96991333-18.42909783-106.39129327z" fill="#0077ff" p-id="61023"></path><path d="M542.857331 235.33741043c12.43681426 22.27320403 77.56049753 61.27957708 77.56049752 61.27957559s56.98322231 37.19738174 76.54293935 36.51900962c19.10746995-0.67837212 15.48948731-83.89196569 15.48948731-86.60545269 0-2.60042447 0.90449566-81.85685083-18.65522287-106.16516972-20.0119656-24.87362851-76.99518791-56.98322231-76.99518644-56.98322233s-65.12368329-40.47617831-77.10825044-33.24021301c-12.09762818 7.2359653-10.06251333 85.58789598-10.06251333 85.58789453s0.67837212 77.22131148 13.2282489 99.60757801z" fill="#0077ff" p-id="61024"></path><path d="M257.94121794 619.29579041c12.54987677-22.38626655 13.2282474-99.83370157 13.22824889-99.83370157s1.92205382-78.35193069-10.06251334-85.70095701c-12.2106907-7.2359653-77.22131148 33.12715052-77.22131147 33.12715051s-56.87015981 32.22265485-76.88212542 56.98322231C87.33073703 548.40594709 88.23523271 627.54931239 88.23523271 630.1497369c-0.11306252 2.71348699-3.61798263 85.92708204 15.48948729 86.71851519 19.67277956 0.67837212 76.54293936-36.5190096 76.54293938-36.51900962s65.23674432-38.89331054 77.67355856-61.05345206z" fill="#0077ff" p-id="61025"></path><path d="M827.43425651 707.48411087c-2.14817739-1.24368174-70.88984185-40.92842542-101.75575393-35.61451396-31.4312217 5.20084896-87.39688729 39.1194341-87.39688729 39.11943411s-67.15879814 36.85819567-66.8196121 50.87787622c0.5653096 14.01968204 69.75922262 50.76481518 69.7592241 50.76481519s68.06329381 37.42350527 93.38916941 37.42350527c25.66506313 0 91.46711706-37.76269134 91.46711705-37.76268985s60.48814246-31.54428419 69.30697406-48.84276284c9.04495663-17.18541612-65.46286933-54.83504493-67.9502313-55.96566414z" fill="#0077ff" p-id="61026"></path><path d="M108.02107331 466.43603375c19.55971705 0.79143315 76.54293936-36.5190096 76.54294082-36.5190096s65.01062077-38.89331054 77.67355858-61.27957561c12.54987677-22.27320403 13.2282474-99.83370157 13.22824742-99.83370155s1.92205382-78.23886817-10.06251334-85.47483348c-12.2106907-7.34902633-77.22131148 33.12715052-77.22131147 33.12715051s-56.98322231 32.22265485-76.88212541 56.98322379C91.62709181 297.97373027 92.53158748 377.23015661 92.53158748 379.83058109c-0.11306252 2.60042447-3.73104368 85.92708204 15.48948583 86.60545266z" fill="#0077ff" p-id="61027"></path><path d="M935.40841903 630.37586043c0.11306252-2.60042447 1.01755818-81.74378978-18.65522286-106.27823225-20.0119656-24.87362851-76.99518791-56.98322231-76.99518644-56.9832223s-64.89755825-40.36311581-76.99518794-33.12715051c-11.98456716 7.34902633-10.17557583 85.70095702-10.17557583 85.70095704s0.79143315 77.44743503 13.22824889 99.83370155c12.54987677 22.16014151 77.56049753 61.27957708 77.56049751 61.27957561s56.98322231 37.19738174 76.65600042 36.5190096c19.22053099-1.01755818 15.48948731-84.34421426 15.37642625-86.94463874z" fill="#0077ff" p-id="61028"></path><path d="M451.50327644 769.66818214c8.70577056-17.0723536-65.68899289-54.60892138-68.17635631-55.96566415-2.14817739-1.24368174-70.88984185-40.81536437-101.75575393-35.72757645-31.4312217 5.31391146-87.39688729 39.1194341-87.39688732 39.1194341s-67.15879814 36.9712567-66.70654957 50.99093873c0.45224708 14.01968204 69.64616011 50.76481518 69.64616012 50.76481519s67.95023131 37.42350527 93.50223192 37.42350526 91.35405454-37.64962882 91.35405602-37.64962883 60.48814246-31.54428419 69.53309907-48.95582385z" fill="#0077ff" p-id="61029"></path><path d="M604.02384556 832.75675054c-2.14817739-1.24368174-70.7767808-40.81536437-101.75575392-35.61451393-31.54428419 5.31391146-87.50994834 39.1194341-87.50994983 39.11943407S347.71240619 873.2329274 348.16465474 887.36567193c0.45224708 14.01968204 69.64616011 50.76481518 69.64616012 50.76481518s67.95023131 37.31044276 93.38916942 37.31044278c25.55200063 0 91.35405454-37.64962882 91.35405602-37.64962882s60.48814246-31.54428419 69.30697405-48.84276284c8.93189411-17.29847862-65.46286933-54.94810745-67.83716879-56.19178769z" fill="#0077ff" p-id="61030"></path></svg>