<?xml version="1.0" standalone="no"?><!DOCTYPE svg PUBLIC "-//W3C//DTD SVG 1.1//EN" "http://www.w3.org/Graphics/SVG/1.1/DTD/svg11.dtd"><svg t="1725593155177" class="icon" viewBox="0 0 1024 1024" version="1.1" xmlns="http://www.w3.org/2000/svg" p-id="65134" xmlns:xlink="http://www.w3.org/1999/xlink" width="200" height="200"><path d="M330.24 742.912l-113.664-91.648-4.096 77.824s-121.344 2.048-121.856-120.32C90.112 486.4 219.136 499.712 245.76 499.712h90.624V436.224l-120.832 0.512s-185.856-5.12-182.272 171.52c3.072 176.128 179.712 184.32 179.712 184.32l1.024 76.288 107.52-82.944v0.512M691.2 222.208h85.504c27.136 0 156.16-13.312 155.648 109.056-0.512 122.368-121.856 120.32-121.856 120.32l-4.096-77.824-119.808 92.16V499.712l122.368 89.6 1.024-76.288s176.64-7.68 179.2-184.32c3.584-174.592-182.272-169.984-182.272-169.984l-127.488-1.024" fill="#8AA2B8" p-id="65135"></path><path d="M416.256 677.888c-54.272 7.68-94.72 53.76-94.72 108.544 0 62.976 47.104 113.664 108.544 113.664h153.6c56.32 0 101.376-43.52 107.52-99.84v-27.648c-6.656-55.808-53.76-96.768-110.08-96.768H431.616l-15.36 2.048z m214.528 115.2c0 30.72-33.28 60.928-69.12 60.928H447.488c-35.328 0-66.048-30.208-66.048-60.928v-1.024c0-32.768 30.208-62.464 66.048-62.464h114.176c35.84 0 69.12 29.184 69.12 62.464v1.024zM433.664 367.616h146.432c61.44 0 112.128 50.176 112.128 112.128 0 61.44-50.176 112.128-112.128 112.128H433.664c-61.44 0-112.128-50.176-112.128-112.128 0-61.952 50.176-112.128 112.128-112.128zM416.768 104.96C362.496 112.64 322.048 159.232 322.048 213.504 322.048 276.48 369.152 327.68 430.592 327.68H583.68c56.32 0 101.376-43.52 107.52-99.84v-27.648c-6.656-55.808-53.76-96.768-110.08-96.768H432.128l-15.36 1.536z m214.016 115.712c0 30.72-33.28 60.928-69.12 60.928H447.488c-35.328 0-66.048-30.208-66.048-60.928v-1.024c0-32.768 30.208-62.464 66.048-62.464h114.176c35.84 0 69.12 29.184 69.12 62.464v1.024z" fill="#384E72" p-id="65136"></path></svg>